<mxfile host="Electron" modified="2024-07-06T15:18:42.176Z" agent="Mozilla/5.0 (Windows NT 10.0; Win64; x64) AppleWebKit/537.36 (KHTML, like Gecko) draw.io/24.2.5 Chrome/120.0.6099.109 Electron/28.1.0 Safari/537.36" etag="hnBr44VXCxVUBupC0b6N" version="24.2.5" type="device">
  <diagram name="Page-1" id="bbNhHPLtcSECq55FanmO">
    <mxGraphModel dx="1434" dy="1944" grid="1" gridSize="10" guides="1" tooltips="1" connect="1" arrows="1" fold="1" page="1" pageScale="1" pageWidth="850" pageHeight="1100" math="0" shadow="0">
      <root>
        <mxCell id="0" />
        <mxCell id="1" parent="0" />
        <mxCell id="_r6Y_dU_7kAWAXshLB6E-125" value="&lt;div&gt;&lt;br&gt;&lt;/div&gt;" style="text;strokeColor=none;fillColor=none;html=1;fontSize=24;fontStyle=1;verticalAlign=middle;align=center;" parent="1" vertex="1">
          <mxGeometry x="359" y="739" width="100" height="40" as="geometry" />
        </mxCell>
        <mxCell id="_r6Y_dU_7kAWAXshLB6E-190" value="" style="sketch=0;points=[[0,0,0],[0.25,0,0],[0.5,0,0],[0.75,0,0],[1,0,0],[0,1,0],[0.25,1,0],[0.5,1,0],[0.75,1,0],[1,1,0],[0,0.25,0],[0,0.5,0],[0,0.75,0],[1,0.25,0],[1,0.5,0],[1,0.75,0]];outlineConnect=0;fontColor=#232F3E;fillColor=#C925D1;strokeColor=#ffffff;dashed=0;verticalLabelPosition=bottom;verticalAlign=top;align=center;html=1;fontSize=12;fontStyle=0;aspect=fixed;shape=mxgraph.aws4.resourceIcon;resIcon=mxgraph.aws4.rds;" parent="1" vertex="1">
          <mxGeometry x="680" y="440" width="78" height="78" as="geometry" />
        </mxCell>
        <mxCell id="_r6Y_dU_7kAWAXshLB6E-189" value="" style="sketch=0;points=[[0,0,0],[0.25,0,0],[0.5,0,0],[0.75,0,0],[1,0,0],[0,1,0],[0.25,1,0],[0.5,1,0],[0.75,1,0],[1,1,0],[0,0.25,0],[0,0.5,0],[0,0.75,0],[1,0.25,0],[1,0.5,0],[1,0.75,0]];outlineConnect=0;fontColor=#232F3E;fillColor=#8C4FFF;strokeColor=#ffffff;dashed=0;verticalLabelPosition=bottom;verticalAlign=top;align=center;html=1;fontSize=12;fontStyle=0;aspect=fixed;shape=mxgraph.aws4.resourceIcon;resIcon=mxgraph.aws4.elastic_load_balancing;" parent="1" vertex="1">
          <mxGeometry x="80" y="440" width="78" height="78" as="geometry" />
        </mxCell>
        <mxCell id="_r6Y_dU_7kAWAXshLB6E-194" value="" style="outlineConnect=0;dashed=0;verticalLabelPosition=bottom;verticalAlign=top;align=center;html=1;shape=mxgraph.aws3.search_documents;fillColor=#F58534;gradientColor=none;direction=south;" parent="1" vertex="1">
          <mxGeometry x="365" y="669" width="110" height="61" as="geometry" />
        </mxCell>
        <mxCell id="_r6Y_dU_7kAWAXshLB6E-202" style="edgeStyle=none;rounded=0;orthogonalLoop=1;jettySize=auto;html=1;exitX=1;exitY=0.25;exitDx=0;exitDy=0;exitPerimeter=0;entryX=0.5;entryY=1;entryDx=0;entryDy=0;entryPerimeter=0;" parent="1" source="_r6Y_dU_7kAWAXshLB6E-189" target="_r6Y_dU_7kAWAXshLB6E-193" edge="1">
          <mxGeometry relative="1" as="geometry" />
        </mxCell>
        <mxCell id="_r6Y_dU_7kAWAXshLB6E-203" value="ELB" style="text;html=1;align=center;verticalAlign=middle;whiteSpace=wrap;rounded=0;" parent="1" vertex="1">
          <mxGeometry x="89" y="520" width="60" height="30" as="geometry" />
        </mxCell>
        <mxCell id="_r6Y_dU_7kAWAXshLB6E-207" value="RDS" style="text;html=1;align=center;verticalAlign=middle;whiteSpace=wrap;rounded=0;" parent="1" vertex="1">
          <mxGeometry x="689" y="520" width="60" height="30" as="geometry" />
        </mxCell>
        <mxCell id="_r6Y_dU_7kAWAXshLB6E-208" value="Blog sewrvice" style="text;html=1;align=center;verticalAlign=middle;whiteSpace=wrap;rounded=0;" parent="1" vertex="1">
          <mxGeometry x="390" y="730" width="60" height="30" as="geometry" />
        </mxCell>
        <mxCell id="_r6Y_dU_7kAWAXshLB6E-217" style="edgeStyle=none;rounded=0;orthogonalLoop=1;jettySize=auto;html=1;exitX=1;exitY=0.5;exitDx=0;exitDy=0;exitPerimeter=0;entryX=0.5;entryY=1;entryDx=0;entryDy=0;entryPerimeter=0;" parent="1" source="_r6Y_dU_7kAWAXshLB6E-189" target="_r6Y_dU_7kAWAXshLB6E-194" edge="1">
          <mxGeometry relative="1" as="geometry" />
        </mxCell>
        <mxCell id="_r6Y_dU_7kAWAXshLB6E-223" style="edgeStyle=none;rounded=0;orthogonalLoop=1;jettySize=auto;html=1;exitX=1;exitY=0.5;exitDx=0;exitDy=0;entryX=0;entryY=0.5;entryDx=0;entryDy=0;entryPerimeter=0;" parent="1" target="_r6Y_dU_7kAWAXshLB6E-190" edge="1">
          <mxGeometry relative="1" as="geometry">
            <mxPoint x="520" y="480" as="sourcePoint" />
          </mxGeometry>
        </mxCell>
        <mxCell id="_r6Y_dU_7kAWAXshLB6E-228" value="AWS Cloud" style="points=[[0,0],[0.25,0],[0.5,0],[0.75,0],[1,0],[1,0.25],[1,0.5],[1,0.75],[1,1],[0.75,1],[0.5,1],[0.25,1],[0,1],[0,0.75],[0,0.5],[0,0.25]];outlineConnect=0;gradientColor=none;html=1;whiteSpace=wrap;fontSize=12;fontStyle=0;container=1;pointerEvents=0;collapsible=0;recursiveResize=0;shape=mxgraph.aws4.group;grIcon=mxgraph.aws4.group_aws_cloud;strokeColor=#232F3E;fillColor=none;verticalAlign=top;align=left;spacingLeft=30;fontColor=#232F3E;dashed=0;" parent="1" vertex="1">
          <mxGeometry width="850" height="1000" as="geometry" />
        </mxCell>
        <mxCell id="_r6Y_dU_7kAWAXshLB6E-192" value="" style="sketch=0;points=[[0,0,0],[0.25,0,0],[0.5,0,0],[0.75,0,0],[1,0,0],[0,1,0],[0.25,1,0],[0.5,1,0],[0.75,1,0],[1,1,0],[0,0.25,0],[0,0.5,0],[0,0.75,0],[1,0.25,0],[1,0.5,0],[1,0.75,0]];outlineConnect=0;fontColor=#232F3E;fillColor=#ED7100;strokeColor=#ffffff;dashed=0;verticalLabelPosition=bottom;verticalAlign=top;align=center;html=1;fontSize=12;fontStyle=0;aspect=fixed;shape=mxgraph.aws4.resourceIcon;resIcon=mxgraph.aws4.ecr;" parent="_r6Y_dU_7kAWAXshLB6E-228" vertex="1">
          <mxGeometry x="379" y="840" width="80" height="80" as="geometry" />
        </mxCell>
        <mxCell id="_r6Y_dU_7kAWAXshLB6E-191" value="" style="sketch=0;points=[[0,0,0],[0.25,0,0],[0.5,0,0],[0.75,0,0],[1,0,0],[0,1,0],[0.25,1,0],[0.5,1,0],[0.75,1,0],[1,1,0],[0,0.25,0],[0,0.5,0],[0,0.75,0],[1,0.25,0],[1,0.5,0],[1,0.75,0]];outlineConnect=0;fontColor=#232F3E;fillColor=#ED7100;strokeColor=#ffffff;dashed=0;verticalLabelPosition=bottom;verticalAlign=top;align=center;html=1;fontSize=12;fontStyle=0;aspect=fixed;shape=mxgraph.aws4.resourceIcon;resIcon=mxgraph.aws4.ecs;" parent="_r6Y_dU_7kAWAXshLB6E-228" vertex="1">
          <mxGeometry x="371" y="40" width="78" height="78" as="geometry" />
        </mxCell>
        <mxCell id="_r6Y_dU_7kAWAXshLB6E-209" value="ECR" style="text;html=1;align=center;verticalAlign=middle;whiteSpace=wrap;rounded=0;" parent="_r6Y_dU_7kAWAXshLB6E-228" vertex="1">
          <mxGeometry x="389" y="930" width="60" height="30" as="geometry" />
        </mxCell>
        <mxCell id="_r6Y_dU_7kAWAXshLB6E-205" value="ECS" style="text;html=1;align=center;verticalAlign=middle;whiteSpace=wrap;rounded=0;" parent="_r6Y_dU_7kAWAXshLB6E-228" vertex="1">
          <mxGeometry x="380" y="120" width="60" height="30" as="geometry" />
        </mxCell>
        <mxCell id="_r6Y_dU_7kAWAXshLB6E-206" style="edgeStyle=none;rounded=0;orthogonalLoop=1;jettySize=auto;html=1;exitX=0.75;exitY=1;exitDx=0;exitDy=0;" parent="_r6Y_dU_7kAWAXshLB6E-228" source="_r6Y_dU_7kAWAXshLB6E-205" target="_r6Y_dU_7kAWAXshLB6E-205" edge="1">
          <mxGeometry relative="1" as="geometry" />
        </mxCell>
        <mxCell id="_r6Y_dU_7kAWAXshLB6E-193" value="" style="outlineConnect=0;dashed=0;verticalLabelPosition=bottom;verticalAlign=top;align=center;html=1;shape=mxgraph.aws3.search_documents;fillColor=#F58534;gradientColor=none;direction=south;" parent="_r6Y_dU_7kAWAXshLB6E-228" vertex="1">
          <mxGeometry x="360" y="200" width="110" height="60" as="geometry" />
        </mxCell>
        <mxCell id="_r6Y_dU_7kAWAXshLB6E-204" value="User service" style="text;html=1;align=center;verticalAlign=middle;whiteSpace=wrap;rounded=0;" parent="_r6Y_dU_7kAWAXshLB6E-228" vertex="1">
          <mxGeometry x="380" y="270" width="60" height="30" as="geometry" />
        </mxCell>
        <mxCell id="_r6Y_dU_7kAWAXshLB6E-231" value="Availability Zone" style="fillColor=none;strokeColor=#147EBA;dashed=1;verticalAlign=top;fontStyle=0;fontColor=#147EBA;whiteSpace=wrap;html=1;" parent="_r6Y_dU_7kAWAXshLB6E-228" vertex="1">
          <mxGeometry x="320" y="160" width="200" height="640" as="geometry" />
        </mxCell>
        <mxCell id="_r6Y_dU_7kAWAXshLB6E-232" style="edgeStyle=none;rounded=0;orthogonalLoop=1;jettySize=auto;html=1;exitX=0.5;exitY=1;exitDx=0;exitDy=0;" parent="_r6Y_dU_7kAWAXshLB6E-228" source="_r6Y_dU_7kAWAXshLB6E-205" target="_r6Y_dU_7kAWAXshLB6E-205" edge="1">
          <mxGeometry relative="1" as="geometry" />
        </mxCell>
        <mxCell id="_r6Y_dU_7kAWAXshLB6E-234" value="Microservices Infrastructure using Docker" style="text;strokeColor=none;fillColor=none;html=1;fontSize=24;fontStyle=1;verticalAlign=middle;align=center;" parent="1" vertex="1">
          <mxGeometry x="360" y="-70" width="120" height="40" as="geometry" />
        </mxCell>
      </root>
    </mxGraphModel>
  </diagram>
</mxfile>
